<?xml version="1.0" standalone="no"?>
<!DOCTYPE svg PUBLIC "-//W3C//DTD SVG 20010904//EN"
 "http://www.w3.org/TR/2001/REC-SVG-20010904/DTD/svg10.dtd">
<svg version="1.0" xmlns="http://www.w3.org/2000/svg"
 width="16.000000pt" height="16.000000pt" viewBox="0 0 16.000000 16.000000"
 preserveAspectRatio="xMidYMid meet">
<metadata>
Created by potrace 1.11, written by Peter Selinger 2001-2013
</metadata>
<g transform="translate(0.000000,16.000000) scale(0.001633,-0.001633)"
fill="#000000" stroke="none">
<path d="M3596 8363 l-1295 -1438 731 -5 730 -5 -1161 -1290 c-638 -709 -1161
-1293 -1161 -1297 0 -5 327 -9 726 -10 l725 -3 -1160 -1290 -1161 -1290 1730
-3 1730 -2 0 -430 0 -430 -234 0 c-128 0 -258 -5 -287 -10 -127 -24 -245 -116
-302 -237 l-32 -68 -3 -277 -3 -278 1731 0 1731 0 -3 278 -3 277 -32 67 c-35
75 -104 150 -173 191 -84 49 -142 57 -407 57 l-243 0 0 430 0 430 1730 2 1729
3 -1161 1290 -1160 1290 726 3 c399 1 726 5 726 10 0 4 -522 588 -1161 1297
l-1160 1290 730 5 730 5 -1295 1438 c-712 790 -1299 1437 -1304 1437 -5 0
-591 -647 -1304 -1437z"/>
</g>
</svg>
